<?xml version="1.0" encoding="UTF-8"?>
<svg id="Capa_7" xmlns="http://www.w3.org/2000/svg" version="1.1" viewBox="0 0 434.202 528.58">
  <!-- Generator: Adobe Illustrator 29.6.1, SVG Export Plug-In . SVG Version: 2.1.1 Build 9)  -->
  <g>
    <rect x="146.966" y="272.686" width="140.438" height="28.203" fill="#00c2a8"/>
    <rect x="146.966" y="225.318" width="140.438" height="30.575" fill="#00c2a8"/>
  </g>
  <g>
    <polygon points="134.371 224.295 73.479 259.448 14.673 224.903 73.479 189.142 134.371 224.295" fill="#00c2a8"/>
    <polygon points="69.281 266.719 69.281 337.025 8.396 301.872 8.396 231.567 69.281 266.719" fill="#00c2a8"/>
    <polygon points="138.57 231.566 138.57 301.872 77.677 337.025 77.677 266.719 138.57 231.566" fill="#00c2a8"/>
  </g>
  <g>
    <polygon points="65.022 194.285 30.595 215.221 30.54 234.224 65.077 254.512 65.022 194.285" fill="#00c2a8"/>
    <polygon points="114.569 212.863 81.815 193.955 81.87 254.603 114.503 235.765 114.569 212.863" fill="#00c2a8"/>
    <polygon points="81.879 344.253 82.082 488.045 65.289 488.06 65.086 344.34 30.51 324.201 29.686 528.342 113.652 528.586 114.474 325.612 81.879 344.253" fill="#00c2a8"/>
    <polygon points="65.013 184.335 64.884 42.111 81.677 42.095 81.806 184.254 114.597 203.184 115.187 .243 31.22 0 30.627 204.188 65.013 184.335" fill="#00c2a8"/>
  </g>
  <g>
    <polygon points="421.606 225.077 360.714 260.23 301.908 225.686 360.714 189.925 421.606 225.077" fill="#00c2a8"/>
    <polygon points="356.516 267.501 356.516 337.808 295.632 302.654 295.632 232.349 356.516 267.501" fill="#00c2a8"/>
    <polygon points="425.805 232.349 425.805 302.654 364.913 337.808 364.913 267.501 425.805 232.349" fill="#00c2a8"/>
  </g>
  <g>
    <polygon points="352.258 195.067 317.83 216.003 317.775 235.006 352.312 255.294 352.258 195.067" fill="#00c2a8"/>
    <polygon points="401.804 213.646 369.05 194.737 369.105 255.386 401.738 236.547 401.804 213.646" fill="#00c2a8"/>
    <polygon points="369.114 345.035 369.317 488.827 352.524 488.843 352.321 345.123 317.746 324.984 316.921 529.124 400.888 529.368 401.71 326.394 369.114 345.035" fill="#00c2a8"/>
    <polygon points="352.249 185.117 352.12 42.893 368.913 42.877 369.042 185.037 401.832 203.967 402.422 1.025 318.455 .782 317.862 204.971 352.249 185.117" fill="#00c2a8"/>
  </g>
</svg>